<svg version="1.2" xmlns="http://www.w3.org/2000/svg" viewBox="0 0 730 217" width="84" height="25">
	<title>techy_jaunt_logo-svg</title>
	<defs>
		<linearGradient id="g1" x1="519.5" y1="286.4" x2="535.7" y2="93.2" gradientUnits="userSpaceOnUse">
			<stop offset=".4" stop-color="#089cf6"/>
			<stop offset=".5" stop-color="#0b97f2"/>
			<stop offset=".7" stop-color="#1289e8"/>
			<stop offset=".8" stop-color="#1f71d6"/>
			<stop offset=".9" stop-color="#3050bd"/>
			<stop offset="1" stop-color="#3743b3"/>
		</linearGradient>
		<linearGradient id="g2" x1="384.2" y1="97.4" x2="724.4" y2="83.7" gradientUnits="userSpaceOnUse">
			<stop offset=".2" stop-color="#34acf6"/>
			<stop offset=".4" stop-color="#36a7f6"/>
			<stop offset=".6" stop-color="#3a99f7"/>
			<stop offset=".8" stop-color="#4281f9"/>
			<stop offset="1" stop-color="#4c60fb"/>
			<stop offset="1" stop-color="#4d5dfb"/>
		</linearGradient>
	</defs>
	<style>
		.s0 { fill: #4d5dfb } 
		.s1 { fill: url(#g1) } 
		.s2 { fill: url(#g2) } 
	</style>
	<path id="Layer" class="s0" d="m33.2 100.1v-76.2h-27.2v-14.2h69.6v14.2h-27.2v76.2z"/>
	<path id="Layer" class="s0" d="m109.8 101q-2.4 0.1-4.7-0.2-2.4-0.3-4.7-0.9-2.3-0.5-4.5-1.4-2.2-0.9-4.3-2.1-1.9-1.1-3.7-2.5-1.7-1.3-3.2-2.9-1.6-1.6-2.9-3.4-1.2-1.8-2.3-3.7-1.1-2.1-1.9-4.3-0.8-2.3-1.4-4.6-0.5-2.3-0.8-4.7-0.2-2.3-0.2-4.7 0-2.4 0.2-4.7 0.3-2.4 0.8-4.7 0.5-2.3 1.3-4.5 0.8-2.3 1.9-4.4 1-1.9 2.2-3.7 1.2-1.7 2.7-3.3 1.5-1.6 3.1-3 1.7-1.4 3.5-2.5 1.9-1.2 3.9-2 2-0.9 4.1-1.5 2.1-0.6 4.3-0.9 2.2-0.2 4.4-0.2 2.1 0 4.3 0.2 2.1 0.3 4.2 0.9 2 0.5 4 1.4 2 0.8 3.8 2 1.8 1.1 3.4 2.5 1.6 1.3 3.1 2.9 1.4 1.6 2.6 3.4 1.2 1.7 2.1 3.6 4.1 8 4.1 19 0 0.9 0 2.3c-0.1 0.9-0.1 1.7-0.2 2.4h-52.2v-10.7h44.5l-5.9 3.3q0.1-1.3-0.1-2.7-0.1-1.3-0.3-2.6-0.3-1.3-0.7-2.6-0.5-1.3-1.1-2.5-0.5-1.1-1.1-2.1-0.7-1-1.5-1.9-0.8-0.9-1.7-1.6-0.9-0.8-1.9-1.5-1.1-0.6-2.2-1.1-1.2-0.5-2.3-0.8-1.2-0.3-2.5-0.5-1.2-0.1-2.4-0.1-1.2 0-2.5 0.1-1.2 0.2-2.4 0.5-1.2 0.3-2.3 0.8-1.2 0.5-2.3 1.1-1 0.7-1.9 1.4-1 0.8-1.8 1.7-0.8 0.9-1.5 2-0.6 1-1.1 2.1-0.6 1.2-1 2.6-0.5 1.3-0.8 2.6-0.2 1.4-0.4 2.8-0.1 1.3-0.1 2.7v2.6q0 1.4 0.2 2.8 0.1 1.5 0.4 2.8 0.3 1.4 0.8 2.8 0.5 1.3 1.2 2.6 0.6 1.2 1.3 2.2 0.8 1.1 1.7 2 0.9 1 2 1.8 1 0.8 2.2 1.4 1.2 0.7 2.5 1.2 1.4 0.5 2.7 0.9 1.4 0.3 2.8 0.4 1.5 0.2 2.9 0.2 2.4 0 4.8-0.4 2.3-0.5 4.5-1.5 2.2-1 4.2-2.5 1.9-1.4 3.5-3.2l8 10q-1.1 1.4-2.3 2.6-1.2 1.2-2.6 2.2-1.3 1.1-2.8 1.9-1.5 0.9-3.1 1.6-1.7 0.7-3.5 1.3-1.8 0.5-3.6 0.9-1.9 0.3-3.7 0.5-1.9 0.1-3.8 0.1z"/>
	<path id="Layer" class="s0" d="m183.2 101q-2.3 0-4.6-0.2-2.3-0.3-4.5-0.9-2.2-0.6-4.3-1.4-2.2-0.9-4.1-2.1-1.9-1.1-3.7-2.5-1.7-1.3-3.2-2.9-1.5-1.6-2.8-3.4-1.3-1.8-2.3-3.7c-1.5-2.9-2.5-5.8-3.3-8.9-0.7-3.1-1.1-6.3-1.1-9.4 0-3.2 0.4-6.4 1.1-9.4 0.8-3.1 1.8-6.1 3.3-8.9q1-2 2.3-3.7 1.3-1.8 2.8-3.4 1.5-1.6 3.3-2.9 1.7-1.4 3.6-2.5 1.9-1.2 4.1-2 2.1-0.9 4.3-1.5 2.2-0.6 4.5-0.9 2.3-0.2 4.6-0.2 2.1 0 4.2 0.2 2.1 0.3 4.1 0.8 2 0.5 4 1.3 1.9 0.8 3.7 1.8 1.8 1.1 3.4 2.4 1.5 1.3 2.9 2.8 1.3 1.5 2.4 3.3 1.1 1.7 1.9 3.5l-11.1 7.3q-0.7-1.1-1.4-2.1-0.7-1-1.6-1.9-0.9-0.9-1.9-1.7-0.9-0.8-2-1.5-1-0.6-2-1-1.1-0.5-2.2-0.8-1.1-0.3-2.2-0.4-1.2-0.2-2.3-0.2-2.6 0-5.1 0.6-2.5 0.7-4.7 2.1-2.2 1.3-3.9 3.2-1.7 1.9-2.9 4.3-0.6 1.3-1.1 2.7-0.5 1.4-0.8 2.8-0.3 1.5-0.4 3-0.2 1.4-0.1 2.9-0.1 1.5 0.1 3 0.1 1.4 0.4 2.9 0.3 1.4 0.8 2.8 0.5 1.5 1.1 2.8 1.2 2.3 2.9 4.2 1.7 2 3.9 3.3 2.2 1.4 4.7 2.1 2.5 0.6 5.1 0.6 1.1 0 2.3-0.1 1.1-0.2 2.2-0.5 1.1-0.3 2.2-0.8 1-0.4 2-1 1.1-0.7 2.1-1.5 0.9-0.8 1.8-1.7 0.9-0.9 1.6-1.9 0.8-1.1 1.4-2.2l11.1 7.2q-0.8 1.9-1.9 3.6-1.1 1.7-2.4 3.2-1.4 1.6-3 2.9-1.5 1.3-3.3 2.3-1.8 1.1-3.7 1.9-2 0.8-4 1.3-2 0.5-4.1 0.8-2.1 0.2-4.2 0.2z"/>
	<path id="Layer" class="s0" d="m258.7 30.2q1.7 0 3.5 0.2 1.7 0.2 3.4 0.6 1.7 0.4 3.3 1 1.7 0.6 3.2 1.5 1.5 0.8 2.8 1.9 1.4 1.1 2.6 2.4 1.2 1.2 2.1 2.7 1 1.4 1.8 2.9 3.4 6.8 3.4 17.2v39.6h-14.7v-37.5q0-9.2-3.8-13.7-3.9-4.6-11-4.6-1.2 0-2.4 0.1-1.2 0.2-2.3 0.5-1.2 0.3-2.3 0.7-1.1 0.5-2.2 1.1-1 0.6-1.9 1.3-0.9 0.8-1.7 1.6-0.7 0.9-1.4 1.9-0.6 1-1.1 2.1-0.6 1.3-1 2.8-0.5 1.4-0.7 2.8-0.3 1.5-0.4 3-0.1 1.4-0.1 2.9v34.9h-14.5v-95.8h14.5v45.6l-3-5.9q0.8-1.6 1.7-3 1-1.5 2.2-2.8 1.2-1.3 2.6-2.4 1.4-1.1 2.9-2 1.7-0.9 3.4-1.6 1.8-0.7 3.6-1.1 1.8-0.5 3.7-0.7 1.9-0.2 3.8-0.2z"/>
	<path id="Layer" fill-rule="evenodd" class="s0" d="m308.7 126.1q-1.2 0-2.3-0.1-1.2-0.1-2.4-0.4-1.2-0.2-2.3-0.5-1.1-0.3-2.2-0.7-1.1-0.4-2.1-0.9-1-0.4-2-1-0.9-0.6-1.8-1.3-0.9-0.7-1.7-1.5l5.8-11.7q0.6 0.5 1.1 1 0.6 0.4 1.3 0.9 0.6 0.4 1.3 0.8 0.6 0.3 1.3 0.6 0.7 0.4 1.4 0.6 0.7 0.3 1.4 0.4 0.8 0.2 1.5 0.3 0.7 0.1 1.5 0.1 0.9 0 1.7-0.1 0.9-0.2 1.7-0.4 0.9-0.3 1.6-0.8 0.8-0.4 1.5-0.9 2.4-2.2 4.5-7.5l1.1-2.7 0.9 2.3 9.9-11.9-3.2-8.4 19.8-51.2h14l-29.3 74.7q-0.6 1.6-1.3 3.2-0.7 1.5-1.5 3.1-0.8 1.5-1.7 2.9-1 1.5-2 2.9-0.8 1-1.7 1.9-0.9 0.9-1.9 1.7-1 0.8-2.1 1.5-1.1 0.7-2.3 1.2-1.1 0.5-2.3 0.8-1.2 0.4-2.3 0.6-1.2 0.2-2.5 0.4-1.2 0.1-2.4 0.1zm14.3-31.9l1.4-2.1 3.8-9.8-19.8-51.2h-15.2l27.4 69.2z"/>
	<path id="Layer" class="s0" d="m43 212.3q-1.6 0-3.1-0.1-1.6-0.2-3.1-0.6-1.5-0.4-3-1-1.4-0.6-2.8-1.4-1.4-0.7-2.7-1.7-1.2-0.9-2.4-2.1-1.1-1.1-2.1-2.3-0.9-1.3-1.7-2.7l4.6-6q0.7 1.2 1.5 2.2 0.8 1.1 1.7 2 0.9 1 2 1.9 1 0.8 2.1 1.5 1 0.7 2.1 1.2 1.1 0.5 2.2 0.8 1.2 0.4 2.4 0.5 1.2 0.2 2.4 0.2 14 0 14-18.4v-50.5h-27.7v-7.6h35.6v57.8q0 13.2-5.6 19.8-5.5 6.5-16.4 6.5z"/>
	<path id="Layer" class="s0" d="m103.4 212.2q-1.4 0.1-2.8-0.1-1.5-0.1-2.9-0.4-1.4-0.3-2.7-0.7-1.4-0.5-2.7-1.1-1.1-0.5-2.1-1.2-1-0.7-1.9-1.5-0.9-0.8-1.7-1.8-0.8-0.9-1.5-1.9-0.6-1.1-1.1-2.3-0.4-1.1-0.8-2.3-0.3-1.2-0.4-2.4-0.2-1.3-0.2-2.5 0-1.2 0.2-2.3 0.1-1.2 0.4-2.3 0.2-1.1 0.6-2.2 0.4-1.1 1-2.1 0.5-1.1 1.3-2 0.7-0.9 1.6-1.8 0.9-0.8 1.9-1.5 1-0.6 2.1-1.1 4.8-2.5 12.9-2.5h19.6v6.3h-19.4q-8.2 0-11.4 3.3-0.8 0.7-1.4 1.7-0.6 0.9-1 1.9-0.4 1.1-0.6 2.1-0.2 1.1-0.2 2.3 0 1.2 0.2 2.4 0.2 1.2 0.7 2.3 0.5 1.1 1.2 2.1 0.8 1 1.7 1.7 3.8 3.2 10.6 3.2 1.5 0.1 3-0.1 1.4-0.2 2.9-0.6 1.4-0.4 2.7-1.1 1.4-0.6 2.6-1.4 1.2-0.9 2.3-1.9 1-1.1 1.9-2.3 0.9-1.2 1.5-2.5 0.7-1.4 1.2-2.8l1.7 5.8q-0.5 1.5-1.3 2.9-0.7 1.4-1.7 2.7-0.9 1.3-2.1 2.3-1.1 1.1-2.4 2-5.4 3.7-13.5 3.7zm19.6-0.6v-13.8l-0.3-2.3v-23.1q0-8-4-12.3-4-4.3-12.1-4.3-1.3 0-2.7 0.1-1.3 0.2-2.6 0.4-1.4 0.3-2.7 0.6-1.2 0.4-2.5 0.9-1.2 0.5-2.3 1.1-1.1 0.5-2.2 1.2-1 0.7-2 1.5-1 0.7-1.9 1.6l-3.5-6.3q1.1-1.1 2.4-2 1.2-0.9 2.5-1.7 1.3-0.8 2.7-1.4 1.4-0.7 2.8-1.2 1.5-0.5 3.1-1 1.6-0.4 3.2-0.6 1.6-0.3 3.2-0.5 1.6-0.1 3.3-0.1 11 0 17 6 6 6 6 18.3v38.9z"/>
	<path id="Layer" class="s0" d="m174.7 212.2q-1.6 0.1-3.3-0.1-1.6-0.2-3.2-0.6-1.6-0.3-3.2-0.9-1.5-0.6-3-1.4-1.3-0.7-2.5-1.7-1.3-1-2.3-2.1-1.1-1.1-2-2.4-0.9-1.3-1.5-2.7-3-6-3-14.9v-36.4h7.6v35.4q0 10 4.5 15.1 4.5 5.1 12.6 5 1.4 0.1 2.7-0.1 1.4-0.1 2.7-0.5 1.3-0.3 2.5-0.8 1.3-0.5 2.5-1.2 1.1-0.7 2.1-1.6 1-0.8 1.8-1.8 0.9-1 1.6-2.1 0.6-1.1 1.2-2.3 0.6-1.5 1-3 0.5-1.5 0.8-3.1 0.3-1.5 0.4-3.1 0.1-1.5 0.1-3.1v-32.8h7.7v62.6h-7.4v-17.1l1.2 3.1q-0.6 1.6-1.4 3.1-0.9 1.5-1.9 2.9-1.1 1.4-2.3 2.6-1.3 1.2-2.7 2.2-1.5 0.9-3.1 1.7-1.6 0.7-3.3 1.2-1.6 0.5-3.4 0.7-1.7 0.3-3.5 0.2z"/>
	<path id="Layer" class="s0" d="m252.9 148.4q1.6 0 3.2 0.2 1.5 0.1 3.1 0.5 1.5 0.4 3 0.9 1.5 0.6 2.9 1.4 1.3 0.7 2.5 1.7 1.2 0.9 2.3 2.1 1 1.1 1.9 2.4 0.8 1.2 1.5 2.6 3 6 3 15v36.4h-7.7v-35.5q0-9.9-4.5-15-4.5-5.1-12.6-5.1-1.4 0-2.7 0.2-1.4 0.1-2.7 0.5-1.4 0.3-2.6 0.8-1.3 0.6-2.5 1.2-1.1 0.7-2.2 1.6-1 0.8-1.9 1.8-0.9 1-1.6 2.1-0.7 1.1-1.3 2.3-0.6 1.4-1.1 2.9-0.5 1.5-0.8 3.1-0.3 1.5-0.5 3.1-0.1 1.5 0 3.1v32.9h-7.7v-62.6h7.3v17.2l-1.1-3.2q0.6-1.6 1.5-3.1 0.9-1.6 2-2.9 1.1-1.4 2.4-2.6 1.3-1.1 2.7-2.1 1.6-1 3.3-1.7 1.7-0.8 3.5-1.3 1.8-0.5 3.7-0.7 1.8-0.2 3.7-0.2z"/>
	<path id="Layer" class="s0" d="m288.2 156.1v-7h35.1v7zm26.8 56.1q-8 0-12.3-4.7-4.3-4.8-4.3-13.5v-58.8h7.6v58.3q0 5.5 2.6 8.5 2.5 3 7.3 3 1.2 0 2.3-0.2 1.1-0.2 2.2-0.6 1.1-0.4 2.1-1 1-0.6 1.8-1.4l2.7 6q-0.5 0.6-1.2 1.1-0.6 0.5-1.3 0.9-0.7 0.4-1.4 0.8-0.8 0.3-1.5 0.6-0.8 0.2-1.6 0.4-0.8 0.2-1.6 0.4-0.9 0.1-1.7 0.2-0.8 0-1.7 0z"/>
	<path id="Layer" class="s0" d="m409.3 207.6c-11.7 0-21.1-9.4-21.1-21 0-11.7 9.4-21.1 21-21.1 11.7 0 21.1 9.4 21.1 21.1 0 11.6-9.4 21-21.1 21z"/>
	<path id="Layer" class="s1" d="m610 120.5q-16.6 6.6-32.8 14.1-16.2 7.4-31.9 15.7-15.8 8.3-31.2 17.5-15.3 9.1-30.1 19c-12.3 8.3-24 16.7-34.9 25.1q18.3-38.5 36.6-77.1z"/>
	<path id="Layer" class="s0" d="m614.1 78.6l-177.6-50.6 17.1-18.5 227.5 83.8z"/>
	<path id="Layer" class="s2" d="m635.1 90.5l90.4 19.7-339.3 36.5 44.7-100.7z"/>
</svg>